<svg xmlns="http://www.w3.org/2000/svg" xmlns:xlink="http://www.w3.org/1999/xlink" width="1200" zoomAndPan="magnify" viewBox="0 0 900 1349.999938" height="1800" preserveAspectRatio="xMidYMid meet" version="1.0"><defs><g/><clipPath id="fcadd303cc"><path d="M 14 464 L 872 464 L 872 825 L 14 825 Z M 14 464 " clip-rule="nonzero"/></clipPath><clipPath id="d29f3fd452"><path d="M 0 539.046875 L 864.457031 434.554688 L 900.1875 730.152344 L 35.730469 834.648438 Z M 0 539.046875 " clip-rule="nonzero"/></clipPath><clipPath id="974ab9a76b"><path d="M 0 539.046875 L 864.457031 434.554688 L 900.1875 730.152344 L 35.730469 834.648438 Z M 0 539.046875 " clip-rule="nonzero"/></clipPath><clipPath id="5b9e3f1348"><path d="M 23 444 L 852 444 L 852 798 L 23 798 Z M 23 444 " clip-rule="nonzero"/></clipPath><clipPath id="5895b17ebd"><path d="M 0 539.046875 L 864.457031 434.554688 L 900.1875 730.152344 L 35.730469 834.648438 Z M 0 539.046875 " clip-rule="nonzero"/></clipPath><clipPath id="ec9babf1ef"><path d="M 0 539.046875 L 864.457031 434.554688 L 900.1875 730.152344 L 35.730469 834.648438 Z M 0 539.046875 " clip-rule="nonzero"/></clipPath></defs><rect x="-90" width="1080" fill="#ffffff" y="-134.999994" height="1619.999926" fill-opacity="1"/><rect x="-90" width="1080" fill="#ffffff" y="-134.999994" height="1619.999926" fill-opacity="1"/><g clip-path="url(#fcadd303cc)"><g clip-path="url(#d29f3fd452)"><g clip-path="url(#974ab9a76b)"><path fill="#bc9c22" d="M 813.753906 740.21875 L 122.644531 823.761719 C 121.105469 823.957031 119.558594 824.089844 118.007812 824.15625 C 116.453125 824.21875 114.902344 824.222656 113.351562 824.15625 C 111.800781 824.089844 110.253906 823.960938 108.710938 823.765625 C 107.171875 823.570312 105.640625 823.3125 104.121094 822.988281 C 102.605469 822.664062 101.101562 822.273438 99.617188 821.824219 C 98.128906 821.371094 96.664062 820.859375 95.222656 820.285156 C 93.777344 819.710938 92.363281 819.074219 90.972656 818.382812 C 89.582031 817.6875 88.226562 816.9375 86.898438 816.128906 C 85.574219 815.316406 84.285156 814.457031 83.03125 813.539062 C 81.777344 812.621094 80.566406 811.652344 79.394531 810.632812 C 78.222656 809.613281 77.097656 808.542969 76.015625 807.429688 C 74.933594 806.316406 73.902344 805.15625 72.917969 803.953125 C 71.933594 802.753906 71.003906 801.511719 70.125 800.230469 C 69.246094 798.949219 68.421875 797.636719 67.652344 796.285156 C 66.886719 794.933594 66.175781 793.554688 65.523438 792.144531 C 64.875 790.734375 64.28125 789.300781 63.75 787.839844 L 16.925781 651.472656 C 16.300781 649.660156 15.78125 647.816406 15.359375 645.949219 C 14.9375 644.078125 14.621094 642.1875 14.40625 640.285156 C 14.191406 638.378906 14.082031 636.464844 14.078125 634.550781 C 14.074219 632.632812 14.171875 630.71875 14.378906 628.8125 C 14.585938 626.90625 14.894531 625.015625 15.304688 623.144531 C 15.71875 621.273438 16.230469 619.425781 16.847656 617.609375 C 17.460938 615.796875 18.171875 614.019531 18.984375 612.28125 C 19.792969 610.542969 20.695312 608.851562 21.691406 607.214844 C 22.761719 605.457031 23.921875 603.761719 25.179688 602.132812 C 26.4375 600.5 27.78125 598.945312 29.207031 597.464844 C 30.636719 595.980469 32.140625 594.582031 33.722656 593.265625 C 35.304688 591.949219 36.957031 590.722656 38.671875 589.589844 C 40.390625 588.453125 42.164062 587.417969 43.996094 586.476562 C 45.828125 585.539062 47.703125 584.703125 49.628906 583.96875 C 51.550781 583.238281 53.507812 582.613281 55.5 582.09375 C 57.492188 581.578125 59.507812 581.171875 61.542969 580.875 L 807.902344 464.835938 C 809.953125 464.496094 812.011719 464.273438 814.085938 464.167969 C 816.160156 464.0625 818.234375 464.074219 820.308594 464.199219 C 822.382812 464.328125 824.441406 464.570312 826.488281 464.929688 C 828.53125 465.289062 830.550781 465.757812 832.542969 466.34375 C 834.535156 466.929688 836.492188 467.625 838.40625 468.429688 C 840.320312 469.234375 842.183594 470.144531 843.996094 471.160156 C 845.808594 472.175781 847.558594 473.289062 849.246094 474.5 C 850.933594 475.710938 852.546875 477.011719 854.085938 478.402344 C 855.554688 479.722656 856.949219 481.121094 858.257812 482.597656 C 859.570312 484.074219 860.796875 485.617188 861.933594 487.230469 C 863.074219 488.84375 864.117188 490.515625 865.066406 492.246094 C 866.019531 493.980469 866.867188 495.757812 867.617188 497.585938 C 868.367188 499.410156 869.015625 501.273438 869.554688 503.175781 C 870.09375 505.074219 870.527344 506.996094 870.851562 508.945312 C 871.175781 510.894531 871.390625 512.851562 871.492188 514.824219 C 871.597656 516.796875 871.589844 518.769531 871.472656 520.738281 L 862.480469 689.355469 C 862.375 690.945312 862.199219 692.53125 861.957031 694.105469 C 861.714844 695.683594 861.402344 697.246094 861.023438 698.792969 C 860.640625 700.34375 860.195312 701.871094 859.683594 703.382812 C 859.167969 704.890625 858.589844 706.375 857.949219 707.835938 C 857.304688 709.296875 856.601562 710.722656 855.832031 712.121094 C 855.066406 713.519531 854.238281 714.882812 853.351562 716.207031 C 852.464844 717.53125 851.523438 718.816406 850.523438 720.058594 C 849.523438 721.304688 848.472656 722.5 847.371094 723.652344 C 846.269531 724.804688 845.117188 725.90625 843.917969 726.957031 C 842.71875 728.007812 841.476562 729.003906 840.1875 729.949219 C 838.902344 730.890625 837.578125 731.773438 836.214844 732.601562 C 834.851562 733.429688 833.453125 734.195312 832.023438 734.898438 C 830.59375 735.605469 829.132812 736.246094 827.648438 736.824219 C 826.160156 737.402344 824.652344 737.914062 823.121094 738.359375 C 821.589844 738.804688 820.042969 739.183594 818.476562 739.492188 C 816.914062 739.804688 815.339844 740.046875 813.753906 740.21875 Z M 810.46875 469.152344 L 808.664062 469.367188 L 61.539062 585.289062 C 59.6875 585.570312 57.859375 585.953125 56.050781 586.4375 C 54.242188 586.921875 52.464844 587.503906 50.71875 588.179688 C 48.972656 588.859375 47.269531 589.628906 45.609375 590.496094 C 43.949219 591.359375 42.339844 592.3125 40.785156 593.351562 C 39.226562 594.394531 37.734375 595.515625 36.300781 596.71875 C 34.867188 597.925781 33.503906 599.203125 32.210938 600.558594 C 30.914062 601.914062 29.699219 603.332031 28.5625 604.820312 C 27.425781 606.308594 26.371094 607.851562 25.402344 609.453125 C 23.5625 612.472656 22.074219 615.65625 20.933594 619.003906 C 19.796875 622.351562 19.035156 625.78125 18.648438 629.292969 C 18.265625 632.808594 18.269531 636.324219 18.65625 639.835938 C 19.046875 643.351562 19.8125 646.78125 20.957031 650.125 L 67.773438 786.386719 C 68.261719 787.734375 68.804688 789.058594 69.402344 790.363281 C 70.003906 791.664062 70.65625 792.941406 71.363281 794.1875 C 72.070312 795.433594 72.832031 796.648438 73.640625 797.832031 C 74.453125 799.015625 75.3125 800.164062 76.21875 801.273438 C 77.125 802.382812 78.078125 803.453125 79.078125 804.484375 C 80.074219 805.511719 81.113281 806.496094 82.195312 807.441406 C 83.277344 808.382812 84.394531 809.277344 85.554688 810.121094 C 86.710938 810.96875 87.902344 811.765625 89.125 812.511719 C 90.351562 813.257812 91.605469 813.953125 92.886719 814.59375 C 94.167969 815.234375 95.476562 815.816406 96.808594 816.347656 C 98.144531 816.875 99.496094 817.347656 100.867188 817.765625 C 102.242188 818.179688 103.628906 818.535156 105.03125 818.832031 C 106.433594 819.132812 107.847656 819.367188 109.269531 819.546875 C 110.691406 819.726562 112.121094 819.84375 113.550781 819.902344 C 114.984375 819.957031 116.417969 819.953125 117.851562 819.890625 C 119.28125 819.828125 120.710938 819.703125 122.132812 819.519531 L 813.242188 735.976562 C 814.703125 735.816406 816.15625 735.59375 817.597656 735.308594 C 819.039062 735.023438 820.46875 734.675781 821.878906 734.261719 C 823.292969 733.851562 824.683594 733.382812 826.054688 732.847656 C 827.425781 732.316406 828.769531 731.726562 830.089844 731.078125 C 831.410156 730.429688 832.699219 729.722656 833.957031 728.960938 C 835.214844 728.199219 836.4375 727.382812 837.625 726.515625 C 838.8125 725.648438 839.960938 724.730469 841.066406 723.761719 C 842.175781 722.792969 843.238281 721.78125 844.257812 720.71875 C 845.277344 719.65625 846.246094 718.554688 847.167969 717.410156 C 848.089844 716.265625 848.964844 715.082031 849.78125 713.859375 C 850.601562 712.636719 851.367188 711.382812 852.078125 710.097656 C 852.789062 708.808594 853.441406 707.492188 854.035156 706.148438 C 854.632812 704.800781 855.167969 703.433594 855.644531 702.042969 C 856.121094 700.652344 856.535156 699.242188 856.886719 697.8125 C 857.242188 696.386719 857.53125 694.945312 857.761719 693.492188 C 857.988281 692.039062 858.152344 690.578125 858.253906 689.113281 L 867.246094 520.496094 C 867.359375 518.710938 867.375 516.921875 867.289062 515.128906 C 867.203125 513.339844 867.019531 511.5625 866.738281 509.792969 C 866.457031 508.023438 866.074219 506.273438 865.597656 504.546875 C 865.121094 502.820312 864.550781 501.125 863.886719 499.460938 C 863.222656 497.796875 862.46875 496.175781 861.621094 494.597656 C 860.777344 493.015625 859.847656 491.488281 858.832031 490.011719 C 857.816406 488.535156 856.722656 487.117188 855.550781 485.765625 C 854.378906 484.410156 853.136719 483.121094 851.820312 481.90625 C 850.433594 480.660156 848.988281 479.496094 847.476562 478.40625 C 845.964844 477.320312 844.398438 476.316406 842.777344 475.398438 C 841.15625 474.480469 839.492188 473.652344 837.78125 472.914062 C 836.070312 472.175781 834.324219 471.53125 832.546875 470.984375 C 830.765625 470.433594 828.960938 469.984375 827.132812 469.628906 C 825.304688 469.277344 823.460938 469.023438 821.605469 468.867188 C 819.75 468.714844 817.890625 468.660156 816.03125 468.707031 C 814.167969 468.753906 812.3125 468.902344 810.46875 469.152344 Z M 810.46875 469.152344 " fill-opacity="1" fill-rule="nonzero"/></g></g></g><g clip-path="url(#5b9e3f1348)"><g clip-path="url(#5895b17ebd)"><g clip-path="url(#ec9babf1ef)"><path fill="#f8f8f3" d="M 26.105469 625.941406 L 72.175781 762.289062 C 72.644531 763.683594 73.171875 765.054688 73.757812 766.402344 C 74.34375 767.75 74.988281 769.070312 75.683594 770.363281 C 76.382812 771.65625 77.136719 772.917969 77.941406 774.144531 C 78.75 775.375 79.605469 776.566406 80.515625 777.722656 C 81.421875 778.878906 82.378906 779.992188 83.382812 781.066406 C 84.386719 782.140625 85.433594 783.167969 86.527344 784.152344 C 87.617188 785.136719 88.75 786.074219 89.921875 786.960938 C 91.09375 787.847656 92.300781 788.683594 93.542969 789.46875 C 94.785156 790.253906 96.058594 790.984375 97.367188 791.65625 C 98.671875 792.332031 100.003906 792.953125 101.359375 793.511719 C 102.71875 794.074219 104.097656 794.578125 105.5 795.023438 C 106.902344 795.464844 108.320312 795.847656 109.753906 796.171875 C 111.1875 796.492188 112.632812 796.753906 114.089844 796.953125 C 115.542969 797.152344 117.007812 797.289062 118.472656 797.363281 C 119.941406 797.4375 121.410156 797.449219 122.878906 797.398438 C 124.347656 797.34375 125.8125 797.230469 127.273438 797.054688 L 798.230469 715.949219 C 799.726562 715.769531 801.210938 715.527344 802.683594 715.214844 C 804.15625 714.90625 805.613281 714.535156 807.054688 714.097656 C 808.496094 713.660156 809.914062 713.164062 811.3125 712.601562 C 812.710938 712.042969 814.082031 711.421875 815.425781 710.742188 C 816.765625 710.058594 818.078125 709.324219 819.355469 708.527344 C 820.636719 707.734375 821.878906 706.882812 823.082031 705.980469 C 824.285156 705.078125 825.449219 704.121094 826.570312 703.117188 C 827.691406 702.113281 828.769531 701.058594 829.796875 699.960938 C 830.828125 698.863281 831.804688 697.71875 832.734375 696.535156 C 833.664062 695.351562 834.539062 694.128906 835.363281 692.867188 C 836.1875 691.605469 836.953125 690.3125 837.660156 688.984375 C 838.371094 687.65625 839.023438 686.300781 839.613281 684.914062 C 840.203125 683.53125 840.734375 682.121094 841.203125 680.691406 C 841.667969 679.257812 842.074219 677.808594 842.417969 676.34375 C 842.757812 674.878906 843.035156 673.398438 843.246094 671.90625 C 843.460938 670.417969 843.605469 668.921875 843.6875 667.417969 L 851.59375 498.71875 C 851.640625 497.765625 851.660156 496.8125 851.652344 495.859375 C 851.648438 494.902344 851.613281 493.949219 851.554688 492.996094 C 851.496094 492.046875 851.410156 491.097656 851.296875 490.148438 C 851.1875 489.199219 851.046875 488.257812 850.882812 487.316406 C 850.71875 486.378906 850.53125 485.441406 850.3125 484.511719 C 850.097656 483.582031 849.855469 482.660156 849.589844 481.746094 C 849.320312 480.828125 849.027344 479.921875 848.710938 479.023438 C 848.394531 478.121094 848.050781 477.230469 847.683594 476.351562 C 847.316406 475.472656 846.925781 474.601562 846.511719 473.742188 C 846.09375 472.882812 845.65625 472.035156 845.195312 471.203125 C 844.730469 470.367188 844.246094 469.546875 843.738281 468.738281 C 843.230469 467.929688 842.699219 467.136719 842.148438 466.359375 C 841.597656 465.582031 841.023438 464.816406 840.429688 464.070312 C 839.835938 463.324219 839.222656 462.59375 838.585938 461.882812 C 837.953125 461.171875 837.296875 460.476562 836.625 459.800781 C 835.953125 459.125 835.261719 458.46875 834.550781 457.828125 C 833.839844 457.191406 833.113281 456.574219 832.371094 455.976562 C 831.625 455.378906 830.867188 454.800781 830.089844 454.246094 C 829.316406 453.691406 828.523438 453.15625 827.71875 452.644531 C 826.914062 452.136719 826.09375 451.644531 825.261719 451.179688 C 824.429688 450.714844 823.585938 450.273438 822.726562 449.851562 C 821.871094 449.433594 821.003906 449.039062 820.125 448.667969 C 819.246094 448.296875 818.355469 447.949219 817.457031 447.628906 C 816.558594 447.304688 815.652344 447.007812 814.738281 446.738281 C 813.824219 446.46875 812.902344 446.222656 811.972656 446 C 811.046875 445.78125 810.109375 445.585938 809.171875 445.417969 C 808.234375 445.25 807.289062 445.105469 806.34375 444.992188 C 805.394531 444.875 804.445312 444.785156 803.496094 444.722656 C 802.542969 444.65625 801.589844 444.621094 800.636719 444.609375 C 799.679688 444.597656 798.726562 444.613281 797.773438 444.65625 C 796.820312 444.699219 795.871094 444.769531 794.921875 444.863281 C 793.972656 444.957031 793.023438 445.078125 792.082031 445.226562 L 67.015625 558.480469 C 66.089844 558.625 65.171875 558.796875 64.253906 558.988281 C 63.339844 559.183594 62.429688 559.40625 61.527344 559.648438 C 60.625 559.894531 59.726562 560.160156 58.839844 560.453125 C 57.949219 560.746094 57.070312 561.066406 56.199219 561.40625 C 55.328125 561.746094 54.464844 562.109375 53.613281 562.5 C 52.761719 562.886719 51.921875 563.296875 51.09375 563.730469 C 50.261719 564.164062 49.445312 564.621094 48.640625 565.097656 C 47.835938 565.574219 47.046875 566.074219 46.269531 566.597656 C 45.492188 567.117188 44.730469 567.660156 43.980469 568.222656 C 43.234375 568.785156 42.5 569.367188 41.785156 569.96875 C 41.070312 570.570312 40.371094 571.191406 39.6875 571.832031 C 39.003906 572.472656 38.339844 573.132812 37.695312 573.808594 C 37.046875 574.484375 36.421875 575.179688 35.8125 575.886719 C 35.203125 576.597656 34.613281 577.324219 34.042969 578.070312 C 33.476562 578.8125 32.925781 579.570312 32.398438 580.339844 C 31.871094 581.113281 31.363281 581.902344 30.878906 582.699219 C 30.394531 583.5 29.929688 584.3125 29.488281 585.140625 C 29.046875 585.964844 28.628906 586.800781 28.234375 587.648438 C 27.839844 588.496094 27.46875 589.355469 27.117188 590.222656 C 26.769531 591.09375 26.445312 591.96875 26.144531 592.855469 C 25.84375 593.742188 25.566406 594.632812 25.3125 595.535156 C 25.0625 596.4375 24.832031 597.34375 24.628906 598.257812 C 24.425781 599.171875 24.25 600.089844 24.09375 601.011719 C 23.941406 601.9375 23.816406 602.863281 23.710938 603.792969 C 23.609375 604.722656 23.53125 605.65625 23.480469 606.589844 C 23.429688 607.523438 23.402344 608.457031 23.398438 609.394531 C 23.398438 610.328125 23.421875 611.265625 23.472656 612.199219 C 23.523438 613.132812 23.597656 614.066406 23.699219 614.996094 C 23.800781 615.925781 23.925781 616.855469 24.078125 617.777344 C 24.226562 618.699219 24.402344 619.621094 24.605469 620.535156 C 24.804688 621.449219 25.03125 622.355469 25.28125 623.257812 C 25.53125 624.160156 25.804688 625.054688 26.105469 625.941406 Z M 26.105469 625.941406 " fill-opacity="1" fill-rule="nonzero"/></g></g></g><g fill="#000000" fill-opacity="0.6314"><g transform="translate(171.515021, 695.02773)"><g><path d="M 21.296875 -3.148438 L 26.734375 -4.160156 L 28.972656 -5.34375 L 29.429688 -7.75 L 29.015625 -12.027344 L 28.289062 -15.085938 L 28.1875 -16.824219 L 27.597656 -20.070312 L 27.53125 -21.5625 L 27.007812 -23.320312 L 25.128906 -36.46875 L 24.621094 -38.140625 L 23.761719 -45.269531 L 24.03125 -47.816406 L 25.429688 -49.035156 L 28.582031 -49.691406 L 31.660156 -49.753906 L 33.335938 -50.265625 L 34.8125 -50.414062 L 36.058594 -51.523438 L 36.757812 -53.46875 L 35.636719 -61.226562 L 34.484375 -62.714844 L 32.773438 -63.535156 L 27.71875 -62.75 L 26.144531 -62.671875 L 24.472656 -62.160156 L 22.898438 -62.082031 L 16.347656 -60.730469 L 14.664062 -60.800781 L 13.105469 -60.640625 L 11.429688 -60.128906 L 9.613281 -60.015625 L 8.195312 -59.460938 L 3.347656 -58.957031 L 0.859375 -58.320312 L -4.894531 -57.757812 L -6.316406 -56.703125 L -7.003906 -54.675781 L -6.667969 -53.058594 L -6.199219 -48.957031 L -5.640625 -46.453125 L -4.679688 -45.101562 L -3.085938 -44.515625 L -1.480469 -44.933594 L 6.289062 -45.972656 L 7.960938 -45.398438 L 9.113281 -43.910156 L 9.355469 -41.273438 L 9.875 -39.019531 L 10.070312 -37.210938 L 10.40625 -35.59375 L 10.597656 -33.289062 L 12.734375 -21.179688 L 12.824219 -19.527344 L 13.769531 -12.910156 L 14.199219 -11.226562 L 14.851562 -6.484375 L 14.929688 -4.910156 L 16.269531 -3.28125 L 18.757812 -2.835938 Z M 21.296875 -3.148438 "/></g></g></g><g fill="#000000" fill-opacity="0.6314"><g transform="translate(217.070945, 687.939664)"><g><path d="M 5.59375 -3.207031 L 6.8125 -1.8125 L 8.503906 -1.15625 L 10.121094 -1.492188 L 13.40625 -1.835938 L 15.089844 -2.265625 L 18.527344 -2.714844 L 20.085938 -3.960938 L 20.496094 -5.609375 L 20.421875 -7.183594 L 19.976562 -8.953125 L 17.734375 -23.378906 L 18.199219 -25.203125 L 19.746094 -26.53125 L 29.351562 -28.109375 L 31.101562 -28.128906 L 32.570312 -28.359375 L 34.257812 -27.703125 L 35.3125 -26.28125 L 38.199219 -8.28125 L 39.296875 -7.117188 L 41.824219 -6.425781 L 46.0625 -7.082031 L 47.667969 -7.5 L 51.046875 -7.777344 L 52.433594 -9.078125 L 53.195312 -10.613281 L 51.878906 -18.003906 L 51.714844 -20.652344 L 51.269531 -21.917969 L 44.984375 -62.847656 L 43.984375 -64.445312 L 42.253906 -64.84375 L 32.867188 -63.464844 L 30.59375 -62.527344 L 30.082031 -60.445312 L 30.480469 -57.335938 L 30.859375 -55.972656 L 31.21875 -52.605469 L 31.703125 -51.097656 L 32.609375 -44.726562 L 31.96875 -42.957031 L 30.476562 -41.808594 L 28.890625 -41.808594 L 25.761719 -40.988281 L 24.023438 -40.886719 L 22.582031 -40.496094 L 17.761719 -39.828125 L 16.097656 -40.320312 L 15.042969 -41.742188 L 14.683594 -43.523438 L 14.417969 -45.234375 L 14.105469 -46.6875 L 13.199219 -53.058594 L 13.082031 -54.878906 L 12.449219 -57.867188 L 11.476562 -59.304688 L 9.625 -59.933594 L 7.855469 -59.492188 L -0.238281 -58.398438 L -1.902344 -57.304688 L -2.464844 -55.546875 L -2.347656 -53.730469 L -1.195312 -47.398438 L -1.105469 -45.742188 L -0.261719 -42.449219 L 0.0585938 -39.328125 L 0.445312 -37.382812 L 0.535156 -35.730469 L 4.328125 -11.359375 L 4.800781 -9.929688 Z M 5.59375 -3.207031 "/></g></g></g><g fill="#000000" fill-opacity="0.6314"><g transform="translate(276.725554, 678.657976)"><g><path d="M 28.402344 -4.167969 L 40.03125 -6.144531 L 41.628906 -7.144531 L 42.261719 -8.996094 L 40.980469 -17.226562 L 39.828125 -18.71875 L 38.003906 -19.1875 L 36.152344 -18.730469 L 34.566406 -18.734375 L 30.398438 -18.167969 L 27.757812 -17.425781 L 26.101562 -17.335938 L 24.324219 -16.972656 L 22.734375 -16.976562 L 20.96875 -16.535156 L 19.128906 -17.085938 L 18.25 -18.449219 L 17.449219 -23.585938 L 17.917969 -25.410156 L 19.246094 -26.535156 L 21.679688 -26.996094 L 24.324219 -27.160156 L 27.394531 -27.804688 L 30.75 -28.242188 L 32.355469 -28.660156 L 34.242188 -28.867188 L 35.769531 -29.773438 L 36.089844 -31.492188 L 35.191406 -38.867188 L 34.019531 -41.023438 L 31.980469 -41.789062 L 27.171875 -41.042969 L 25.488281 -40.613281 L 22.023438 -40.324219 L 17.324219 -39.425781 L 15.496094 -39.894531 L 14.453125 -42.320312 L 14.058594 -44.84375 L 14.550781 -46.507812 L 16.242188 -47.4375 L 17.804688 -47.597656 L 19.304688 -48.164062 L 30.984375 -49.816406 L 32.519531 -50.136719 L 34.078125 -51.382812 L 34.664062 -52.976562 L 34.332031 -54.59375 L 34.160156 -56.238281 L 33.234375 -61.101562 L 32.261719 -62.535156 L 30.527344 -62.933594 L 28.816406 -62.667969 L 27.300781 -62.765625 L 20.710938 -61.65625 L 18.941406 -61.214844 L 17.285156 -61.125 L 15.914062 -60.828125 L 14.257812 -60.738281 L 7.601562 -59.535156 L 5.933594 -59.527344 L 4.433594 -58.957031 L 2.941406 -58.894531 L 1.335938 -58.476562 L -0.304688 -58.304688 L -1.917969 -57.386719 L -2.546875 -55.535156 L -1.902344 -52.464844 L -1.625 -49.082031 L -1.101562 -47.328125 L -0.0234375 -39.316406 L 0.488281 -37.640625 L 0.566406 -36.066406 L 1.523438 -29.371094 L 1.996094 -27.941406 L 3.96875 -14.726562 L 4.046875 -13.152344 L 4.546875 -11.558594 L 5.175781 -5.898438 L 5.617188 -4.128906 L 6.613281 -2.03125 L 9.222656 -1.351562 L 15.105469 -2.183594 L 16.871094 -2.625 L 18.351562 -2.773438 L 21.65625 -3.535156 L 23.253906 -3.453125 L 25.140625 -3.660156 L 26.746094 -4.078125 Z M 28.402344 -4.167969 "/></g></g></g><g fill="#000000" fill-opacity="0.6314"><g transform="translate(323.422412, 671.392391)"><g/></g></g><g fill="#000000" fill-opacity="0.6314"><g transform="translate(345.507669, 667.956135)"><g><path d="M 28.464844 -3.761719 L 32.589844 -4.070312 L 38.234375 -5.363281 L 42.890625 -7.089844 L 44.230469 -8.132812 L 45.855469 -8.972656 L 47.136719 -9.839844 L 50.6875 -13.3125 L 52.613281 -15.949219 L 54.109375 -18.6875 L 55.363281 -21.886719 L 56.519531 -28.410156 L 55.800781 -29.800781 L 54.007812 -30.609375 L 49.492188 -29.574219 L 47.824219 -29.5625 L 46.207031 -29.226562 L 44.566406 -29.054688 L 42.84375 -27.785156 L 41.742188 -26.277344 L 41.167969 -24.605469 L 39.621094 -22.191406 L 38.496094 -20.847656 L 37.347656 -20.167969 L 34.738281 -18.175781 L 30.457031 -17.261719 L 28.054688 -17.136719 L 24.953125 -17.742188 L 21.875 -18.761719 L 19.179688 -20.515625 L 16.945312 -23.089844 L 16.121094 -24.628906 L 15.371094 -25.683594 L 14.734375 -27.085938 L 14.210938 -28.839844 L 13.4375 -33.8125 L 13.5 -37.164062 L 14.269531 -40.285156 L 14.84375 -41.960938 L 16.441406 -44.546875 L 18.15625 -46.402344 L 20.167969 -47.964844 L 25.515625 -49.550781 L 29.046875 -49.933594 L 31.6875 -49.589844 L 33.242188 -49.25 L 34.523438 -48.53125 L 37.253906 -46.535156 L 38.339844 -45.453125 L 40.128906 -44.144531 L 42.144531 -43.539062 L 43.585938 -43.929688 L 45.3125 -44.113281 L 46.929688 -44.449219 L 49.25 -44.558594 L 51.65625 -45.183594 L 52.941406 -46.054688 L 53.257812 -47.773438 L 52.488281 -49.488281 L 51.691406 -50.867188 L 50.933594 -52.503906 L 49.835938 -53.667969 L 48.898438 -54.859375 L 47.542969 -56.066406 L 46.40625 -57.476562 L 43.753906 -59.484375 L 37.667969 -62.125 L 29.4375 -63.515625 L 27.875 -63.355469 L 26.207031 -63.347656 L 21.140625 -62.644531 L 13.476562 -59.863281 L 7.886719 -56.074219 L 5.804688 -53.914062 L 2.792969 -50.1875 L 1.023438 -47.074219 L -0.15625 -44.46875 L -1.484375 -39.589844 L -1.78125 -36.121094 L -1.503906 -28.984375 L -0.0898438 -23.109375 L 1.773438 -18.640625 L 6.382812 -12.097656 L 10.28125 -9.03125 L 14.445312 -6.421875 L 18.242188 -5.09375 L 22.148438 -4.113281 L 23.667969 -4.015625 L 25.386719 -3.699219 L 26.90625 -3.601562 Z M 28.464844 -3.761719 "/></g></g></g><g fill="#000000" fill-opacity="0.6314"><g transform="translate(407.688648, 658.281369)"><g><path d="M 5.738281 -3.898438 L 6.636719 -1.867188 L 8.3125 -1.292969 L 9.96875 -1.382812 L 13.355469 -2.160156 L 16.558594 -2.492188 L 19.628906 -3.136719 L 21.21875 -3.132812 L 22.984375 -3.578125 L 39.136719 -6.003906 L 40.558594 -7.0625 L 41.0625 -9.726562 L 39.953125 -16.316406 L 38.839844 -18.648438 L 37.21875 -19.398438 L 35.53125 -18.96875 L 34.035156 -18.402344 L 32.285156 -18.378906 L 28.957031 -17.777344 L 27.273438 -17.851562 L 25.847656 -17.378906 L 22.640625 -17.046875 L 20.957031 -16.617188 L 19.222656 -17.015625 L 18.320312 -18.542969 L 14.101562 -46.1875 L 13.632812 -48.117188 L 13.289062 -51.402344 L 12.320312 -56.011719 L 12.164062 -57.574219 L 11.070312 -59.238281 L 9.285156 -59.964844 L 6.105469 -59.46875 L 4.527344 -58.890625 L 1.21875 -58.707031 L -0.292969 -58.222656 L -1.902344 -57.304688 L -2.359375 -55.398438 L -0.582031 -43.988281 L -0.503906 -42.414062 L -0.0898438 -40.808594 L 0.136719 -37.753906 L 0.496094 -35.972656 L 0.902344 -34.449219 Z M 5.738281 -3.898438 "/></g></g></g><g fill="#000000" fill-opacity="0.6314"><g transform="translate(451.533156, 651.459582)"><g><path d="M 28.203125 -3.304688 L 30.609375 -3.929688 L 32.171875 -4.085938 L 38.273438 -6.707031 L 40.96875 -8.710938 L 43.378906 -10.921875 L 45.304688 -13.5625 L 46.738281 -16.703125 L 46.972656 -18.410156 L 47.570312 -19.921875 L 47.773438 -23.460938 L 47.570312 -27.4375 L 44.148438 -49.445312 L 43.742188 -50.964844 L 43.628906 -52.785156 L 43.261719 -54.0625 L 42.210938 -60.828125 L 42.199219 -62.496094 L 40.875 -64.042969 L 38.992188 -64.335938 L 33.882812 -63.375 L 30.421875 -63.085938 L 28.835938 -62.003906 L 28.21875 -60.070312 L 33.378906 -27.984375 L 33.59375 -22.839844 L 33.296875 -21.542969 L 32.652344 -19.773438 L 31.417969 -18.578125 L 28.730469 -17.074219 L 23.839844 -16.316406 L 21.902344 -16.429688 L 20.390625 -17.03125 L 18.933594 -17.804688 L 17.753906 -18.957031 L 17.023438 -20.429688 L 15.796875 -25.082031 L 11.960938 -51.363281 L 11.605469 -52.5625 L 11.363281 -55.195312 L 10.832031 -57.535156 L 9.574219 -59.175781 L 7.75 -59.640625 L 6.203125 -59.402344 L 4.609375 -58.902344 L 1.054688 -58.683594 L -0.621094 -58.171875 L -2.230469 -57.253906 L -3.046875 -55.539062 L -2.632812 -53.9375 L -2.328125 -51.980469 L -2.289062 -50.648438 L -0.269531 -39.277344 L -0.257812 -37.609375 L 0.144531 -36.085938 L 1.941406 -22.925781 L 3.445312 -16.480469 L 4.78125 -13.265625 L 6.515625 -10.699219 L 8.847656 -8.054688 L 10.003906 -7.066406 L 11.390625 -6.195312 L 14.265625 -4.890625 L 16.007812 -4.410156 L 17.347656 -3.867188 L 20.660156 -2.964844 L 23.9375 -2.804688 L 25.570312 -3.058594 Z M 28.203125 -3.304688 "/></g></g></g><g fill="#000000" fill-opacity="0.6314"><g transform="translate(507.764959, 642.71045)"><g><path d="M 5.71875 -3.476562 L 6.707031 -1.960938 L 8.40625 -1.226562 L 11.058594 -1.886719 L 13.542969 -2.023438 L 25.335938 -4.027344 L 27.003906 -4.035156 L 35.335938 -5.75 L 36.765625 -6.222656 L 41.125 -8.234375 L 42.480469 -9.195312 L 45.332031 -12.3125 L 47.066406 -15.671875 L 47.625 -17.429688 L 47.875 -19.050781 L 48.285156 -20.703125 L 47.421875 -27.328125 L 46.070312 -30.125 L 44.082031 -33.238281 L 42.832031 -34.296875 L 41.351562 -35.234375 L 40.242188 -36.980469 L 40.574219 -38.621094 L 41.625 -42.039062 L 42.148438 -45.125 L 41.796875 -47.910156 L 41.242188 -50.410156 L 40.132812 -53.242188 L 39.296875 -54.867188 L 36.023438 -58.195312 L 34.625 -59.148438 L 33.273438 -59.773438 L 31.992188 -60.492188 L 30.480469 -61.089844 L 28.820312 -61.582031 L 27.355469 -61.855469 L 24.0625 -62.097656 L 15.632812 -61.035156 L 14.214844 -60.480469 L 10.972656 -60.394531 L 9.554688 -59.839844 L -0.332031 -58.46875 L -1.996094 -57.375 L -2.546875 -55.535156 L -2.269531 -53.742188 L -1.875 -52.300781 L -1.691406 -50.574219 L -1.382812 -49.121094 L -0.796875 -44.289062 L -0.0195312 -40.902344 L 2.078125 -25.285156 L 2.703125 -22.875 L 5.316406 -5 Z M 17.40625 -38.355469 L 15.542969 -39.066406 L 14.292969 -41.207031 L 13.777344 -43.96875 L 14.390625 -46.484375 L 15.785156 -47.703125 L 24.269531 -48.4375 L 25.675781 -47.988281 L 26.53125 -46.785156 L 27.15625 -44.378906 L 26.953125 -41.925781 L 25.882812 -40.757812 L 23.644531 -39.574219 Z M 20.546875 -16.554688 L 18.992188 -16.894531 L 17.679688 -18.363281 L 17.164062 -23.289062 L 17.679688 -24.789062 L 18.902344 -26.066406 L 20.488281 -26.0625 L 22.175781 -26.492188 L 29.949219 -26.949219 L 31.425781 -26.59375 L 32.46875 -25.253906 L 33.273438 -23.292969 L 33.234375 -20.863281 L 32.515625 -19.585938 L 31.269531 -18.472656 L 26.847656 -17.367188 Z M 20.546875 -16.554688 "/></g></g></g><g fill="#000000" fill-opacity="0.6314"><g transform="translate(561.551903, 634.341715)"><g/></g></g><g fill="#000000" fill-opacity="0.6314"><g transform="translate(583.63716, 630.90546)"><g><path d="M 5.59375 -3.207031 L 6.8125 -1.8125 L 8.503906 -1.15625 L 10.121094 -1.492188 L 13.40625 -1.835938 L 15.089844 -2.265625 L 18.527344 -2.714844 L 20.085938 -3.960938 L 20.496094 -5.609375 L 20.421875 -7.183594 L 19.976562 -8.953125 L 17.734375 -23.378906 L 18.199219 -25.203125 L 19.746094 -26.53125 L 29.351562 -28.109375 L 31.101562 -28.128906 L 32.570312 -28.359375 L 34.257812 -27.703125 L 35.3125 -26.28125 L 38.199219 -8.28125 L 39.296875 -7.117188 L 41.824219 -6.425781 L 46.0625 -7.082031 L 47.667969 -7.5 L 51.046875 -7.777344 L 52.433594 -9.078125 L 53.195312 -10.613281 L 51.878906 -18.003906 L 51.714844 -20.652344 L 51.269531 -21.917969 L 44.984375 -62.847656 L 43.984375 -64.445312 L 42.253906 -64.84375 L 32.867188 -63.464844 L 30.59375 -62.527344 L 30.082031 -60.445312 L 30.480469 -57.335938 L 30.859375 -55.972656 L 31.21875 -52.605469 L 31.703125 -51.097656 L 32.609375 -44.726562 L 31.96875 -42.957031 L 30.476562 -41.808594 L 28.890625 -41.808594 L 25.761719 -40.988281 L 24.023438 -40.886719 L 22.582031 -40.496094 L 17.761719 -39.828125 L 16.097656 -40.320312 L 15.042969 -41.742188 L 14.683594 -43.523438 L 14.417969 -45.234375 L 14.105469 -46.6875 L 13.199219 -53.058594 L 13.082031 -54.878906 L 12.449219 -57.867188 L 11.476562 -59.304688 L 9.625 -59.933594 L 7.855469 -59.492188 L -0.238281 -58.398438 L -1.902344 -57.304688 L -2.464844 -55.546875 L -2.347656 -53.730469 L -1.195312 -47.398438 L -1.105469 -45.742188 L -0.261719 -42.449219 L 0.0585938 -39.328125 L 0.445312 -37.382812 L 0.535156 -35.730469 L 4.328125 -11.359375 L 4.800781 -9.929688 Z M 5.59375 -3.207031 "/></g></g></g><g fill="#000000" fill-opacity="0.6314"><g transform="translate(643.291793, 621.623769)"><g><path d="M 28.203125 -3.304688 L 30.609375 -3.929688 L 32.171875 -4.085938 L 38.273438 -6.707031 L 40.96875 -8.710938 L 43.378906 -10.921875 L 45.304688 -13.5625 L 46.738281 -16.703125 L 46.972656 -18.410156 L 47.570312 -19.921875 L 47.773438 -23.460938 L 47.570312 -27.4375 L 44.148438 -49.445312 L 43.742188 -50.964844 L 43.628906 -52.785156 L 43.261719 -54.0625 L 42.210938 -60.828125 L 42.199219 -62.496094 L 40.875 -64.042969 L 38.992188 -64.335938 L 33.882812 -63.375 L 30.421875 -63.085938 L 28.835938 -62.003906 L 28.21875 -60.070312 L 33.378906 -27.984375 L 33.59375 -22.839844 L 33.296875 -21.542969 L 32.652344 -19.773438 L 31.417969 -18.578125 L 28.730469 -17.074219 L 23.839844 -16.316406 L 21.902344 -16.429688 L 20.390625 -17.03125 L 18.933594 -17.804688 L 17.753906 -18.957031 L 17.023438 -20.429688 L 15.796875 -25.082031 L 11.960938 -51.363281 L 11.605469 -52.5625 L 11.363281 -55.195312 L 10.832031 -57.535156 L 9.574219 -59.175781 L 7.75 -59.640625 L 6.203125 -59.402344 L 4.609375 -58.902344 L 1.054688 -58.683594 L -0.621094 -58.171875 L -2.230469 -57.253906 L -3.046875 -55.539062 L -2.632812 -53.9375 L -2.328125 -51.980469 L -2.289062 -50.648438 L -0.269531 -39.277344 L -0.257812 -37.609375 L 0.144531 -36.085938 L 1.941406 -22.925781 L 3.445312 -16.480469 L 4.78125 -13.265625 L 6.515625 -10.699219 L 8.847656 -8.054688 L 10.003906 -7.066406 L 11.390625 -6.195312 L 14.265625 -4.890625 L 16.007812 -4.410156 L 17.347656 -3.867188 L 20.660156 -2.964844 L 23.9375 -2.804688 L 25.570312 -3.058594 Z M 28.203125 -3.304688 "/></g></g></g><g fill="#000000" fill-opacity="0.6314"><g transform="translate(699.523572, 612.874641)"><g><path d="M 5.71875 -3.476562 L 6.707031 -1.960938 L 8.40625 -1.226562 L 11.058594 -1.886719 L 13.542969 -2.023438 L 25.335938 -4.027344 L 27.003906 -4.035156 L 35.335938 -5.75 L 36.765625 -6.222656 L 41.125 -8.234375 L 42.480469 -9.195312 L 45.332031 -12.3125 L 47.066406 -15.671875 L 47.625 -17.429688 L 47.875 -19.050781 L 48.285156 -20.703125 L 47.421875 -27.328125 L 46.070312 -30.125 L 44.082031 -33.238281 L 42.832031 -34.296875 L 41.351562 -35.234375 L 40.242188 -36.980469 L 40.574219 -38.621094 L 41.625 -42.039062 L 42.148438 -45.125 L 41.796875 -47.910156 L 41.242188 -50.410156 L 40.132812 -53.242188 L 39.296875 -54.867188 L 36.023438 -58.195312 L 34.625 -59.148438 L 33.273438 -59.773438 L 31.992188 -60.492188 L 30.480469 -61.089844 L 28.820312 -61.582031 L 27.355469 -61.855469 L 24.0625 -62.097656 L 15.632812 -61.035156 L 14.214844 -60.480469 L 10.972656 -60.394531 L 9.554688 -59.839844 L -0.332031 -58.46875 L -1.996094 -57.375 L -2.546875 -55.535156 L -2.269531 -53.742188 L -1.875 -52.300781 L -1.691406 -50.574219 L -1.382812 -49.121094 L -0.796875 -44.289062 L -0.0195312 -40.902344 L 2.078125 -25.285156 L 2.703125 -22.875 L 5.316406 -5 Z M 17.40625 -38.355469 L 15.542969 -39.066406 L 14.292969 -41.207031 L 13.777344 -43.96875 L 14.390625 -46.484375 L 15.785156 -47.703125 L 24.269531 -48.4375 L 25.675781 -47.988281 L 26.53125 -46.785156 L 27.15625 -44.378906 L 26.953125 -41.925781 L 25.882812 -40.757812 L 23.644531 -39.574219 Z M 20.546875 -16.554688 L 18.992188 -16.894531 L 17.679688 -18.363281 L 17.164062 -23.289062 L 17.679688 -24.789062 L 18.902344 -26.066406 L 20.488281 -26.0625 L 22.175781 -26.492188 L 29.949219 -26.949219 L 31.425781 -26.59375 L 32.46875 -25.253906 L 33.273438 -23.292969 L 33.234375 -20.863281 L 32.515625 -19.585938 L 31.269531 -18.472656 L 26.847656 -17.367188 Z M 20.546875 -16.554688 "/></g></g></g><g fill="#efd522" fill-opacity="1"><g transform="translate(174.127714, 691.317979)"><g><path d="M 21.296875 -3.148438 L 26.734375 -4.160156 L 28.972656 -5.34375 L 29.429688 -7.75 L 29.015625 -12.027344 L 28.289062 -15.085938 L 28.1875 -16.824219 L 27.597656 -20.070312 L 27.53125 -21.5625 L 27.007812 -23.320312 L 25.128906 -36.46875 L 24.621094 -38.140625 L 23.761719 -45.269531 L 24.03125 -47.816406 L 25.429688 -49.035156 L 28.582031 -49.691406 L 31.660156 -49.753906 L 33.335938 -50.265625 L 34.8125 -50.414062 L 36.058594 -51.523438 L 36.757812 -53.46875 L 35.636719 -61.226562 L 34.484375 -62.714844 L 32.773438 -63.535156 L 27.71875 -62.75 L 26.144531 -62.671875 L 24.472656 -62.160156 L 22.898438 -62.082031 L 16.347656 -60.730469 L 14.664062 -60.800781 L 13.105469 -60.640625 L 11.429688 -60.128906 L 9.613281 -60.015625 L 8.195312 -59.460938 L 3.347656 -58.957031 L 0.859375 -58.320312 L -4.894531 -57.757812 L -6.316406 -56.703125 L -7.003906 -54.675781 L -6.667969 -53.058594 L -6.199219 -48.957031 L -5.640625 -46.453125 L -4.679688 -45.101562 L -3.085938 -44.515625 L -1.480469 -44.933594 L 6.289062 -45.972656 L 7.960938 -45.398438 L 9.113281 -43.910156 L 9.355469 -41.273438 L 9.875 -39.019531 L 10.070312 -37.210938 L 10.40625 -35.59375 L 10.597656 -33.289062 L 12.734375 -21.179688 L 12.824219 -19.527344 L 13.769531 -12.910156 L 14.199219 -11.226562 L 14.851562 -6.484375 L 14.929688 -4.910156 L 16.269531 -3.28125 L 18.757812 -2.835938 Z M 21.296875 -3.148438 "/></g></g></g><g fill="#efd522" fill-opacity="1"><g transform="translate(219.683637, 684.229912)"><g><path d="M 5.59375 -3.207031 L 6.8125 -1.8125 L 8.503906 -1.15625 L 10.121094 -1.492188 L 13.40625 -1.835938 L 15.089844 -2.265625 L 18.527344 -2.714844 L 20.085938 -3.960938 L 20.496094 -5.609375 L 20.421875 -7.183594 L 19.976562 -8.953125 L 17.734375 -23.378906 L 18.199219 -25.203125 L 19.746094 -26.53125 L 29.351562 -28.109375 L 31.101562 -28.128906 L 32.570312 -28.359375 L 34.257812 -27.703125 L 35.3125 -26.28125 L 38.199219 -8.28125 L 39.296875 -7.117188 L 41.824219 -6.425781 L 46.0625 -7.082031 L 47.667969 -7.5 L 51.046875 -7.777344 L 52.433594 -9.078125 L 53.195312 -10.613281 L 51.878906 -18.003906 L 51.714844 -20.652344 L 51.269531 -21.917969 L 44.984375 -62.847656 L 43.984375 -64.445312 L 42.253906 -64.84375 L 32.867188 -63.464844 L 30.59375 -62.527344 L 30.082031 -60.445312 L 30.480469 -57.335938 L 30.859375 -55.972656 L 31.21875 -52.605469 L 31.703125 -51.097656 L 32.609375 -44.726562 L 31.96875 -42.957031 L 30.476562 -41.808594 L 28.890625 -41.808594 L 25.761719 -40.988281 L 24.023438 -40.886719 L 22.582031 -40.496094 L 17.761719 -39.828125 L 16.097656 -40.320312 L 15.042969 -41.742188 L 14.683594 -43.523438 L 14.417969 -45.234375 L 14.105469 -46.6875 L 13.199219 -53.058594 L 13.082031 -54.878906 L 12.449219 -57.867188 L 11.476562 -59.304688 L 9.625 -59.933594 L 7.855469 -59.492188 L -0.238281 -58.398438 L -1.902344 -57.304688 L -2.464844 -55.546875 L -2.347656 -53.730469 L -1.195312 -47.398438 L -1.105469 -45.742188 L -0.261719 -42.449219 L 0.0585938 -39.328125 L 0.445312 -37.382812 L 0.535156 -35.730469 L 4.328125 -11.359375 L 4.800781 -9.929688 Z M 5.59375 -3.207031 "/></g></g></g><g fill="#efd522" fill-opacity="1"><g transform="translate(279.338247, 674.948224)"><g><path d="M 28.402344 -4.167969 L 40.03125 -6.144531 L 41.628906 -7.144531 L 42.261719 -8.996094 L 40.980469 -17.226562 L 39.828125 -18.71875 L 38.003906 -19.1875 L 36.152344 -18.730469 L 34.566406 -18.734375 L 30.398438 -18.167969 L 27.757812 -17.425781 L 26.101562 -17.335938 L 24.324219 -16.972656 L 22.734375 -16.976562 L 20.96875 -16.535156 L 19.128906 -17.085938 L 18.25 -18.449219 L 17.449219 -23.585938 L 17.917969 -25.410156 L 19.246094 -26.535156 L 21.679688 -26.996094 L 24.324219 -27.160156 L 27.394531 -27.804688 L 30.75 -28.242188 L 32.355469 -28.660156 L 34.242188 -28.867188 L 35.769531 -29.773438 L 36.089844 -31.492188 L 35.191406 -38.867188 L 34.019531 -41.023438 L 31.980469 -41.789062 L 27.171875 -41.042969 L 25.488281 -40.613281 L 22.023438 -40.324219 L 17.324219 -39.425781 L 15.496094 -39.894531 L 14.453125 -42.320312 L 14.058594 -44.84375 L 14.550781 -46.507812 L 16.242188 -47.4375 L 17.804688 -47.597656 L 19.304688 -48.164062 L 30.984375 -49.816406 L 32.519531 -50.136719 L 34.078125 -51.382812 L 34.664062 -52.976562 L 34.332031 -54.59375 L 34.160156 -56.238281 L 33.234375 -61.101562 L 32.261719 -62.535156 L 30.527344 -62.933594 L 28.816406 -62.667969 L 27.300781 -62.765625 L 20.710938 -61.65625 L 18.941406 -61.214844 L 17.285156 -61.125 L 15.914062 -60.828125 L 14.257812 -60.738281 L 7.601562 -59.535156 L 5.933594 -59.527344 L 4.433594 -58.957031 L 2.941406 -58.894531 L 1.335938 -58.476562 L -0.304688 -58.304688 L -1.917969 -57.386719 L -2.546875 -55.535156 L -1.902344 -52.464844 L -1.625 -49.082031 L -1.101562 -47.328125 L -0.0234375 -39.316406 L 0.488281 -37.640625 L 0.566406 -36.066406 L 1.523438 -29.371094 L 1.996094 -27.941406 L 3.96875 -14.726562 L 4.046875 -13.152344 L 4.546875 -11.558594 L 5.175781 -5.898438 L 5.617188 -4.128906 L 6.613281 -2.03125 L 9.222656 -1.351562 L 15.105469 -2.183594 L 16.871094 -2.625 L 18.351562 -2.773438 L 21.65625 -3.535156 L 23.253906 -3.453125 L 25.140625 -3.660156 L 26.746094 -4.078125 Z M 28.402344 -4.167969 "/></g></g></g><g fill="#efd522" fill-opacity="1"><g transform="translate(326.035105, 667.682639)"><g/></g></g><g fill="#efd522" fill-opacity="1"><g transform="translate(348.120362, 664.246384)"><g><path d="M 28.464844 -3.761719 L 32.589844 -4.070312 L 38.234375 -5.363281 L 42.890625 -7.089844 L 44.230469 -8.132812 L 45.855469 -8.972656 L 47.136719 -9.839844 L 50.6875 -13.3125 L 52.613281 -15.949219 L 54.109375 -18.6875 L 55.363281 -21.886719 L 56.519531 -28.410156 L 55.800781 -29.800781 L 54.007812 -30.609375 L 49.492188 -29.574219 L 47.824219 -29.5625 L 46.207031 -29.226562 L 44.566406 -29.054688 L 42.84375 -27.785156 L 41.742188 -26.277344 L 41.167969 -24.605469 L 39.621094 -22.191406 L 38.496094 -20.847656 L 37.347656 -20.167969 L 34.738281 -18.175781 L 30.457031 -17.261719 L 28.054688 -17.136719 L 24.953125 -17.742188 L 21.875 -18.761719 L 19.179688 -20.515625 L 16.945312 -23.089844 L 16.121094 -24.628906 L 15.371094 -25.683594 L 14.734375 -27.085938 L 14.210938 -28.839844 L 13.4375 -33.8125 L 13.5 -37.164062 L 14.269531 -40.285156 L 14.84375 -41.960938 L 16.441406 -44.546875 L 18.15625 -46.402344 L 20.167969 -47.964844 L 25.515625 -49.550781 L 29.046875 -49.933594 L 31.6875 -49.589844 L 33.242188 -49.25 L 34.523438 -48.53125 L 37.253906 -46.535156 L 38.339844 -45.453125 L 40.128906 -44.144531 L 42.144531 -43.539062 L 43.585938 -43.929688 L 45.3125 -44.113281 L 46.929688 -44.449219 L 49.25 -44.558594 L 51.65625 -45.183594 L 52.941406 -46.054688 L 53.257812 -47.773438 L 52.488281 -49.488281 L 51.691406 -50.867188 L 50.933594 -52.503906 L 49.835938 -53.667969 L 48.898438 -54.859375 L 47.542969 -56.066406 L 46.40625 -57.476562 L 43.753906 -59.484375 L 37.667969 -62.125 L 29.4375 -63.515625 L 27.875 -63.355469 L 26.207031 -63.347656 L 21.140625 -62.644531 L 13.476562 -59.863281 L 7.886719 -56.074219 L 5.804688 -53.914062 L 2.792969 -50.1875 L 1.023438 -47.074219 L -0.15625 -44.46875 L -1.484375 -39.589844 L -1.78125 -36.121094 L -1.503906 -28.984375 L -0.0898438 -23.109375 L 1.773438 -18.640625 L 6.382812 -12.097656 L 10.28125 -9.03125 L 14.445312 -6.421875 L 18.242188 -5.09375 L 22.148438 -4.113281 L 23.667969 -4.015625 L 25.386719 -3.699219 L 26.90625 -3.601562 Z M 28.464844 -3.761719 "/></g></g></g><g fill="#efd522" fill-opacity="1"><g transform="translate(410.301341, 654.571617)"><g><path d="M 5.738281 -3.898438 L 6.636719 -1.867188 L 8.3125 -1.292969 L 9.96875 -1.382812 L 13.355469 -2.160156 L 16.558594 -2.492188 L 19.628906 -3.136719 L 21.21875 -3.132812 L 22.984375 -3.578125 L 39.136719 -6.003906 L 40.558594 -7.0625 L 41.0625 -9.726562 L 39.953125 -16.316406 L 38.839844 -18.648438 L 37.21875 -19.398438 L 35.53125 -18.96875 L 34.035156 -18.402344 L 32.285156 -18.378906 L 28.957031 -17.777344 L 27.273438 -17.851562 L 25.847656 -17.378906 L 22.640625 -17.046875 L 20.957031 -16.617188 L 19.222656 -17.015625 L 18.320312 -18.542969 L 14.101562 -46.1875 L 13.632812 -48.117188 L 13.289062 -51.402344 L 12.320312 -56.011719 L 12.164062 -57.574219 L 11.070312 -59.238281 L 9.285156 -59.964844 L 6.105469 -59.46875 L 4.527344 -58.890625 L 1.21875 -58.707031 L -0.292969 -58.222656 L -1.902344 -57.304688 L -2.359375 -55.398438 L -0.582031 -43.988281 L -0.503906 -42.414062 L -0.0898438 -40.808594 L 0.136719 -37.753906 L 0.496094 -35.972656 L 0.902344 -34.449219 Z M 5.738281 -3.898438 "/></g></g></g><g fill="#efd522" fill-opacity="1"><g transform="translate(454.145848, 647.74983)"><g><path d="M 28.203125 -3.304688 L 30.609375 -3.929688 L 32.171875 -4.085938 L 38.273438 -6.707031 L 40.96875 -8.710938 L 43.378906 -10.921875 L 45.304688 -13.5625 L 46.738281 -16.703125 L 46.972656 -18.410156 L 47.570312 -19.921875 L 47.773438 -23.460938 L 47.570312 -27.4375 L 44.148438 -49.445312 L 43.742188 -50.964844 L 43.628906 -52.785156 L 43.261719 -54.0625 L 42.210938 -60.828125 L 42.199219 -62.496094 L 40.875 -64.042969 L 38.992188 -64.335938 L 33.882812 -63.375 L 30.421875 -63.085938 L 28.835938 -62.003906 L 28.21875 -60.070312 L 33.378906 -27.984375 L 33.59375 -22.839844 L 33.296875 -21.542969 L 32.652344 -19.773438 L 31.417969 -18.578125 L 28.730469 -17.074219 L 23.839844 -16.316406 L 21.902344 -16.429688 L 20.390625 -17.03125 L 18.933594 -17.804688 L 17.753906 -18.957031 L 17.023438 -20.429688 L 15.796875 -25.082031 L 11.960938 -51.363281 L 11.605469 -52.5625 L 11.363281 -55.195312 L 10.832031 -57.535156 L 9.574219 -59.175781 L 7.75 -59.640625 L 6.203125 -59.402344 L 4.609375 -58.902344 L 1.054688 -58.683594 L -0.621094 -58.171875 L -2.230469 -57.253906 L -3.046875 -55.539062 L -2.632812 -53.9375 L -2.328125 -51.980469 L -2.289062 -50.648438 L -0.269531 -39.277344 L -0.257812 -37.609375 L 0.144531 -36.085938 L 1.941406 -22.925781 L 3.445312 -16.480469 L 4.78125 -13.265625 L 6.515625 -10.699219 L 8.847656 -8.054688 L 10.003906 -7.066406 L 11.390625 -6.195312 L 14.265625 -4.890625 L 16.007812 -4.410156 L 17.347656 -3.867188 L 20.660156 -2.964844 L 23.9375 -2.804688 L 25.570312 -3.058594 Z M 28.203125 -3.304688 "/></g></g></g><g fill="#efd522" fill-opacity="1"><g transform="translate(510.377652, 639.000698)"><g><path d="M 5.71875 -3.476562 L 6.707031 -1.960938 L 8.40625 -1.226562 L 11.058594 -1.886719 L 13.542969 -2.023438 L 25.335938 -4.027344 L 27.003906 -4.035156 L 35.335938 -5.75 L 36.765625 -6.222656 L 41.125 -8.234375 L 42.480469 -9.195312 L 45.332031 -12.3125 L 47.066406 -15.671875 L 47.625 -17.429688 L 47.875 -19.050781 L 48.285156 -20.703125 L 47.421875 -27.328125 L 46.070312 -30.125 L 44.082031 -33.238281 L 42.832031 -34.296875 L 41.351562 -35.234375 L 40.242188 -36.980469 L 40.574219 -38.621094 L 41.625 -42.039062 L 42.148438 -45.125 L 41.796875 -47.910156 L 41.242188 -50.410156 L 40.132812 -53.242188 L 39.296875 -54.867188 L 36.023438 -58.195312 L 34.625 -59.148438 L 33.273438 -59.773438 L 31.992188 -60.492188 L 30.480469 -61.089844 L 28.820312 -61.582031 L 27.355469 -61.855469 L 24.0625 -62.097656 L 15.632812 -61.035156 L 14.214844 -60.480469 L 10.972656 -60.394531 L 9.554688 -59.839844 L -0.332031 -58.46875 L -1.996094 -57.375 L -2.546875 -55.535156 L -2.269531 -53.742188 L -1.875 -52.300781 L -1.691406 -50.574219 L -1.382812 -49.121094 L -0.796875 -44.289062 L -0.0195312 -40.902344 L 2.078125 -25.285156 L 2.703125 -22.875 L 5.316406 -5 Z M 17.40625 -38.355469 L 15.542969 -39.066406 L 14.292969 -41.207031 L 13.777344 -43.96875 L 14.390625 -46.484375 L 15.785156 -47.703125 L 24.269531 -48.4375 L 25.675781 -47.988281 L 26.53125 -46.785156 L 27.15625 -44.378906 L 26.953125 -41.925781 L 25.882812 -40.757812 L 23.644531 -39.574219 Z M 20.546875 -16.554688 L 18.992188 -16.894531 L 17.679688 -18.363281 L 17.164062 -23.289062 L 17.679688 -24.789062 L 18.902344 -26.066406 L 20.488281 -26.0625 L 22.175781 -26.492188 L 29.949219 -26.949219 L 31.425781 -26.59375 L 32.46875 -25.253906 L 33.273438 -23.292969 L 33.234375 -20.863281 L 32.515625 -19.585938 L 31.269531 -18.472656 L 26.847656 -17.367188 Z M 20.546875 -16.554688 "/></g></g></g><g fill="#efd522" fill-opacity="1"><g transform="translate(564.164595, 630.631964)"><g/></g></g><g fill="#efd522" fill-opacity="1"><g transform="translate(586.249852, 627.195708)"><g><path d="M 5.59375 -3.207031 L 6.8125 -1.8125 L 8.503906 -1.15625 L 10.121094 -1.492188 L 13.40625 -1.835938 L 15.089844 -2.265625 L 18.527344 -2.714844 L 20.085938 -3.960938 L 20.496094 -5.609375 L 20.421875 -7.183594 L 19.976562 -8.953125 L 17.734375 -23.378906 L 18.199219 -25.203125 L 19.746094 -26.53125 L 29.351562 -28.109375 L 31.101562 -28.128906 L 32.570312 -28.359375 L 34.257812 -27.703125 L 35.3125 -26.28125 L 38.199219 -8.28125 L 39.296875 -7.117188 L 41.824219 -6.425781 L 46.0625 -7.082031 L 47.667969 -7.5 L 51.046875 -7.777344 L 52.433594 -9.078125 L 53.195312 -10.613281 L 51.878906 -18.003906 L 51.714844 -20.652344 L 51.269531 -21.917969 L 44.984375 -62.847656 L 43.984375 -64.445312 L 42.253906 -64.84375 L 32.867188 -63.464844 L 30.59375 -62.527344 L 30.082031 -60.445312 L 30.480469 -57.335938 L 30.859375 -55.972656 L 31.21875 -52.605469 L 31.703125 -51.097656 L 32.609375 -44.726562 L 31.96875 -42.957031 L 30.476562 -41.808594 L 28.890625 -41.808594 L 25.761719 -40.988281 L 24.023438 -40.886719 L 22.582031 -40.496094 L 17.761719 -39.828125 L 16.097656 -40.320312 L 15.042969 -41.742188 L 14.683594 -43.523438 L 14.417969 -45.234375 L 14.105469 -46.6875 L 13.199219 -53.058594 L 13.082031 -54.878906 L 12.449219 -57.867188 L 11.476562 -59.304688 L 9.625 -59.933594 L 7.855469 -59.492188 L -0.238281 -58.398438 L -1.902344 -57.304688 L -2.464844 -55.546875 L -2.347656 -53.730469 L -1.195312 -47.398438 L -1.105469 -45.742188 L -0.261719 -42.449219 L 0.0585938 -39.328125 L 0.445312 -37.382812 L 0.535156 -35.730469 L 4.328125 -11.359375 L 4.800781 -9.929688 Z M 5.59375 -3.207031 "/></g></g></g><g fill="#efd522" fill-opacity="1"><g transform="translate(645.904486, 617.914017)"><g><path d="M 28.203125 -3.304688 L 30.609375 -3.929688 L 32.171875 -4.085938 L 38.273438 -6.707031 L 40.96875 -8.710938 L 43.378906 -10.921875 L 45.304688 -13.5625 L 46.738281 -16.703125 L 46.972656 -18.410156 L 47.570312 -19.921875 L 47.773438 -23.460938 L 47.570312 -27.4375 L 44.148438 -49.445312 L 43.742188 -50.964844 L 43.628906 -52.785156 L 43.261719 -54.0625 L 42.210938 -60.828125 L 42.199219 -62.496094 L 40.875 -64.042969 L 38.992188 -64.335938 L 33.882812 -63.375 L 30.421875 -63.085938 L 28.835938 -62.003906 L 28.21875 -60.070312 L 33.378906 -27.984375 L 33.59375 -22.839844 L 33.296875 -21.542969 L 32.652344 -19.773438 L 31.417969 -18.578125 L 28.730469 -17.074219 L 23.839844 -16.316406 L 21.902344 -16.429688 L 20.390625 -17.03125 L 18.933594 -17.804688 L 17.753906 -18.957031 L 17.023438 -20.429688 L 15.796875 -25.082031 L 11.960938 -51.363281 L 11.605469 -52.5625 L 11.363281 -55.195312 L 10.832031 -57.535156 L 9.574219 -59.175781 L 7.75 -59.640625 L 6.203125 -59.402344 L 4.609375 -58.902344 L 1.054688 -58.683594 L -0.621094 -58.171875 L -2.230469 -57.253906 L -3.046875 -55.539062 L -2.632812 -53.9375 L -2.328125 -51.980469 L -2.289062 -50.648438 L -0.269531 -39.277344 L -0.257812 -37.609375 L 0.144531 -36.085938 L 1.941406 -22.925781 L 3.445312 -16.480469 L 4.78125 -13.265625 L 6.515625 -10.699219 L 8.847656 -8.054688 L 10.003906 -7.066406 L 11.390625 -6.195312 L 14.265625 -4.890625 L 16.007812 -4.410156 L 17.347656 -3.867188 L 20.660156 -2.964844 L 23.9375 -2.804688 L 25.570312 -3.058594 Z M 28.203125 -3.304688 "/></g></g></g><g fill="#efd522" fill-opacity="1"><g transform="translate(702.136265, 609.164889)"><g><path d="M 5.71875 -3.476562 L 6.707031 -1.960938 L 8.40625 -1.226562 L 11.058594 -1.886719 L 13.542969 -2.023438 L 25.335938 -4.027344 L 27.003906 -4.035156 L 35.335938 -5.75 L 36.765625 -6.222656 L 41.125 -8.234375 L 42.480469 -9.195312 L 45.332031 -12.3125 L 47.066406 -15.671875 L 47.625 -17.429688 L 47.875 -19.050781 L 48.285156 -20.703125 L 47.421875 -27.328125 L 46.070312 -30.125 L 44.082031 -33.238281 L 42.832031 -34.296875 L 41.351562 -35.234375 L 40.242188 -36.980469 L 40.574219 -38.621094 L 41.625 -42.039062 L 42.148438 -45.125 L 41.796875 -47.910156 L 41.242188 -50.410156 L 40.132812 -53.242188 L 39.296875 -54.867188 L 36.023438 -58.195312 L 34.625 -59.148438 L 33.273438 -59.773438 L 31.992188 -60.492188 L 30.480469 -61.089844 L 28.820312 -61.582031 L 27.355469 -61.855469 L 24.0625 -62.097656 L 15.632812 -61.035156 L 14.214844 -60.480469 L 10.972656 -60.394531 L 9.554688 -59.839844 L -0.332031 -58.46875 L -1.996094 -57.375 L -2.546875 -55.535156 L -2.269531 -53.742188 L -1.875 -52.300781 L -1.691406 -50.574219 L -1.382812 -49.121094 L -0.796875 -44.289062 L -0.0195312 -40.902344 L 2.078125 -25.285156 L 2.703125 -22.875 L 5.316406 -5 Z M 17.40625 -38.355469 L 15.542969 -39.066406 L 14.292969 -41.207031 L 13.777344 -43.96875 L 14.390625 -46.484375 L 15.785156 -47.703125 L 24.269531 -48.4375 L 25.675781 -47.988281 L 26.53125 -46.785156 L 27.15625 -44.378906 L 26.953125 -41.925781 L 25.882812 -40.757812 L 23.644531 -39.574219 Z M 20.546875 -16.554688 L 18.992188 -16.894531 L 17.679688 -18.363281 L 17.164062 -23.289062 L 17.679688 -24.789062 L 18.902344 -26.066406 L 20.488281 -26.0625 L 22.175781 -26.492188 L 29.949219 -26.949219 L 31.425781 -26.59375 L 32.46875 -25.253906 L 33.273438 -23.292969 L 33.234375 -20.863281 L 32.515625 -19.585938 L 31.269531 -18.472656 L 26.847656 -17.367188 Z M 20.546875 -16.554688 "/></g></g></g><g fill="#000000" fill-opacity="1"><g transform="translate(190.515048, 845.144163)"><g><path d="M 16.714844 -5.527344 L 5.859375 -4.164062 L 4.992188 -11.046875 L 15.585938 -12.378906 L 15.15625 -15.785156 L 4.566406 -14.453125 L 3.738281 -21.035156 L 14.5625 -22.398438 L 14.140625 -25.773438 L -0.09375 -23.984375 L 2.875 -0.359375 L 17.140625 -2.152344 Z M 16.714844 -5.527344 "/></g></g></g><g fill="#000000" fill-opacity="1"><g transform="translate(209.1533, 842.802509)"><g><path d="M 9.03125 -16.171875 L 1.441406 -24.175781 L -2.699219 -23.65625 L 7.359375 -13.007812 L 0.402344 -0.0507812 L 4.542969 -0.570312 L 9.738281 -10.558594 L 17.273438 -2.171875 L 21.382812 -2.6875 L 11.4375 -13.519531 L 18.617188 -26.335938 L 14.507812 -25.816406 Z M 9.03125 -16.171875 "/></g></g></g><g fill="#000000" fill-opacity="1"><g transform="translate(230.964721, 840.062188)"><g><path d="M 8.488281 -24.824219 L -0.0664062 -23.75 L 2.875 -0.359375 L 6.28125 -0.789062 L 5.304688 -8.574219 L 10.449219 -9.21875 C 15.492188 -9.855469 17.546875 -14.050781 17.054688 -17.957031 C 16.5625 -21.867188 13.535156 -25.457031 8.488281 -24.824219 Z M 10.027344 -12.5625 L 4.882812 -11.914062 L 3.769531 -20.769531 L 8.917969 -21.417969 C 11.757812 -21.773438 13.4375 -19.742188 13.71875 -17.503906 C 13.996094 -15.300781 12.867188 -12.917969 10.027344 -12.5625 Z M 10.027344 -12.5625 "/></g></g></g><g fill="#000000" fill-opacity="1"><g transform="translate(250.805428, 837.569462)"><g><path d="M 16.816406 -5.539062 L 5.824219 -4.160156 L 3.308594 -24.171875 L -0.0664062 -23.75 L 2.875 -0.359375 L 17.242188 -2.167969 Z M 16.816406 -5.539062 "/></g></g></g><g fill="#000000" fill-opacity="1"><g transform="translate(268.207814, 835.383079)"><g><path d="M -0.300781 -11.839844 C 0.546875 -5.09375 6.601562 -0.386719 13.351562 -1.238281 C 20.101562 -2.085938 24.839844 -8.144531 23.992188 -14.894531 C 23.144531 -21.640625 17.050781 -26.375 10.300781 -25.527344 C 3.550781 -24.679688 -1.148438 -18.589844 -0.300781 -11.839844 Z M 3.175781 -12.277344 C 2.570312 -17.089844 5.925781 -21.449219 10.738281 -22.050781 C 15.546875 -22.65625 19.910156 -19.269531 20.515625 -14.457031 C 21.121094 -9.644531 17.726562 -5.316406 12.917969 -4.710938 C 8.105469 -4.105469 3.78125 -7.464844 3.175781 -12.277344 Z M 3.175781 -12.277344 "/></g></g></g><g fill="#000000" fill-opacity="1"><g transform="translate(295.062934, 832.009083)"><g><path d="M 9.902344 -13.292969 L 5.960938 -12.796875 L 6.164062 -11.195312 L 15.972656 -2.007812 L 20.347656 -2.554688 L 11.859375 -10.417969 C 15.78125 -11.621094 17.425781 -15.019531 17.007812 -18.324219 C 16.542969 -22.035156 13.496094 -25.757812 8.417969 -25.121094 L -0.101562 -24.050781 L 2.875 -0.359375 L 6.214844 -0.78125 L 3.667969 -21.0625 L 8.84375 -21.710938 C 11.683594 -22.070312 13.382812 -19.90625 13.632812 -17.902344 C 13.890625 -15.863281 12.742188 -13.648438 9.902344 -13.292969 Z M 9.902344 -13.292969 "/></g></g></g><g fill="#000000" fill-opacity="1"><g transform="translate(314.970463, 829.507962)"><g><path d="M 16.714844 -5.527344 L 5.859375 -4.164062 L 4.992188 -11.046875 L 15.585938 -12.378906 L 15.15625 -15.785156 L 4.566406 -14.453125 L 3.738281 -21.035156 L 14.5625 -22.398438 L 14.140625 -25.773438 L -0.09375 -23.984375 L 2.875 -0.359375 L 17.140625 -2.152344 Z M 16.714844 -5.527344 "/></g></g></g><g fill="#000000" fill-opacity="1"><g transform="translate(333.608715, 827.166308)"><g/></g></g><g fill="#000000" fill-opacity="1"><g transform="translate(341.925791, 826.121376)"><g><path d="M 4.71875 -21.328125 L 7.285156 -0.914062 L 10.660156 -1.339844 L 8.09375 -21.753906 L 15.144531 -22.640625 L 14.742188 -25.847656 L -2.765625 -23.648438 L -2.363281 -20.441406 Z M 4.71875 -21.328125 "/></g></g></g><g fill="#000000" fill-opacity="1"><g transform="translate(359.862607, 823.867849)"><g><path d="M 14.367188 -16.128906 L 4.476562 -14.886719 L 3.285156 -24.375 L -0.0898438 -23.949219 L 2.875 -0.359375 L 6.25 -0.785156 L 4.894531 -11.542969 L 14.785156 -12.785156 L 16.136719 -2.027344 L 19.546875 -2.457031 L 16.582031 -26.042969 L 13.175781 -25.617188 Z M 14.367188 -16.128906 "/></g></g></g><g fill="#000000" fill-opacity="1"><g transform="translate(382.275256, 821.051991)"><g><path d="M 16.714844 -5.527344 L 5.859375 -4.164062 L 4.992188 -11.046875 L 15.585938 -12.378906 L 15.15625 -15.785156 L 4.566406 -14.453125 L 3.738281 -21.035156 L 14.5625 -22.398438 L 14.140625 -25.773438 L -0.09375 -23.984375 L 2.875 -0.359375 L 17.140625 -2.152344 Z M 16.714844 -5.527344 "/></g></g></g><g fill="#000000" fill-opacity="1"><g transform="translate(400.913508, 818.710338)"><g/></g></g><g fill="#000000" fill-opacity="1"><g transform="translate(409.230584, 817.665406)"><g><path d="M 8.296875 -25.003906 L -0.0898438 -23.949219 L 2.875 -0.359375 L 11.261719 -1.414062 C 18.910156 -2.375 22.023438 -8.671875 21.289062 -14.519531 C 20.554688 -20.367188 15.949219 -25.964844 8.296875 -25.003906 Z M 10.835938 -4.789062 L 5.824219 -4.160156 L 3.707031 -21 L 8.71875 -21.628906 C 14.132812 -22.308594 17.425781 -18.242188 17.949219 -14.101562 C 18.46875 -9.957031 16.25 -5.46875 10.835938 -4.789062 Z M 10.835938 -4.789062 "/></g></g></g><g fill="#000000" fill-opacity="1"><g transform="translate(433.44694, 814.622936)"><g><path d="M 8.019531 -21.8125 L 12.363281 -22.359375 L 11.972656 -25.464844 L -0.0898438 -23.949219 L 0.300781 -20.84375 L 4.644531 -21.386719 L 6.824219 -4.046875 L 2.480469 -3.5 L 2.875 -0.359375 L 14.933594 -1.875 L 14.539062 -5.015625 L 10.195312 -4.472656 Z M 8.019531 -21.8125 "/></g></g></g><g fill="#000000" fill-opacity="1"><g transform="translate(451.216749, 812.390391)"><g><path d="M 18.449219 -26.3125 L 14.839844 -25.859375 L 9.953125 -7.222656 L 0.675781 -24.078125 L -3 -23.617188 L 9.464844 -1.121094 L 11.9375 -1.433594 Z M 18.449219 -26.3125 "/></g></g></g><g fill="#000000" fill-opacity="1"><g transform="translate(472.360145, 809.733999)"><g><path d="M 16.714844 -5.527344 L 5.859375 -4.164062 L 4.992188 -11.046875 L 15.585938 -12.378906 L 15.15625 -15.785156 L 4.566406 -14.453125 L 3.738281 -21.035156 L 14.5625 -22.398438 L 14.140625 -25.773438 L -0.09375 -23.984375 L 2.875 -0.359375 L 17.140625 -2.152344 Z M 16.714844 -5.527344 "/></g></g></g><g fill="#000000" fill-opacity="1"><g transform="translate(490.998397, 807.392346)"><g><path d="M 9.902344 -13.292969 L 5.960938 -12.796875 L 6.164062 -11.195312 L 15.972656 -2.007812 L 20.347656 -2.554688 L 11.859375 -10.417969 C 15.78125 -11.621094 17.425781 -15.019531 17.007812 -18.324219 C 16.542969 -22.035156 13.496094 -25.757812 8.417969 -25.121094 L -0.101562 -24.050781 L 2.875 -0.359375 L 6.214844 -0.78125 L 3.667969 -21.0625 L 8.84375 -21.710938 C 11.683594 -22.070312 13.382812 -19.90625 13.632812 -17.902344 C 13.890625 -15.863281 12.742188 -13.648438 9.902344 -13.292969 Z M 9.902344 -13.292969 "/></g></g></g><g fill="#000000" fill-opacity="1"><g transform="translate(510.905927, 804.891224)"><g><path d="M 12.390625 -19.171875 L 15.714844 -19.722656 C 14.574219 -23.925781 10.597656 -25.328125 6.988281 -24.875 C 4.28125 -24.535156 1.609375 -23.113281 0.296875 -20.875 C -0.429688 -19.632812 -0.695312 -18.238281 -0.519531 -16.835938 C -0.5 -16.667969 -0.441406 -16.472656 -0.414062 -16.273438 L -0.417969 -16.304688 C 0.5625 -11.472656 4.9375 -11.210938 8.625 -11.300781 C 10.996094 -11.359375 13.4375 -11.359375 14.0625 -9.640625 C 14.167969 -9.347656 14.234375 -9.085938 14.261719 -8.851562 C 14.566406 -6.445312 12 -4.699219 9.496094 -4.382812 C 7.324219 -4.109375 4.542969 -4.914062 4.035156 -7.058594 L 4.050781 -6.921875 L 3.953125 -7.421875 L 0.554688 -6.925781 L 0.667969 -6.296875 C 1.628906 -2.171875 6.273438 -0.585938 9.882812 -1.039062 C 14.089844 -1.566406 18.242188 -4.734375 17.675781 -9.246094 C 17.617188 -9.714844 17.476562 -10.273438 17.316406 -10.761719 C 15.941406 -14.390625 11.863281 -14.726562 8.601562 -14.726562 C 5.96875 -14.632812 3.21875 -14.625 2.878906 -17.332031 C 2.796875 -18 2.878906 -18.6875 3.214844 -19.242188 C 4.03125 -20.597656 5.734375 -21.355469 7.335938 -21.558594 C 9.34375 -21.808594 11.660156 -21.183594 12.390625 -19.171875 Z M 12.390625 -19.171875 "/></g></g></g><g fill="#000000" fill-opacity="1"><g transform="translate(530.780045, 802.3943)"><g><path d="M 8.019531 -21.8125 L 12.363281 -22.359375 L 11.972656 -25.464844 L -0.0898438 -23.949219 L 0.300781 -20.84375 L 4.644531 -21.386719 L 6.824219 -4.046875 L 2.480469 -3.5 L 2.875 -0.359375 L 14.933594 -1.875 L 14.539062 -5.015625 L 10.195312 -4.472656 Z M 8.019531 -21.8125 "/></g></g></g><g fill="#000000" fill-opacity="1"><g transform="translate(548.549855, 800.161755)"><g><path d="M 4.71875 -21.328125 L 7.285156 -0.914062 L 10.660156 -1.339844 L 8.09375 -21.753906 L 15.144531 -22.640625 L 14.742188 -25.847656 L -2.765625 -23.648438 L -2.363281 -20.441406 Z M 4.71875 -21.328125 "/></g></g></g><g fill="#000000" fill-opacity="1"><g transform="translate(566.486671, 797.908228)"><g><path d="M 8.410156 -14.359375 L 0.480469 -24.257812 L -3.496094 -23.761719 L 7.15625 -10.570312 L 8.351562 -1.050781 L 11.761719 -1.476562 L 10.566406 -11 L 17.722656 -26.425781 L 13.714844 -25.921875 Z M 8.410156 -14.359375 "/></g></g></g><g fill="#000000" fill-opacity="1"><g transform="translate(586.628004, 795.377732)"><g/></g></g><g fill="#000000" fill-opacity="1"><g transform="translate(594.94508, 794.332799)"><g><path d="M -0.300781 -11.839844 C 0.546875 -5.09375 6.601562 -0.386719 13.351562 -1.238281 C 20.101562 -2.085938 24.839844 -8.144531 23.992188 -14.894531 C 23.144531 -21.640625 17.050781 -26.375 10.300781 -25.527344 C 3.550781 -24.679688 -1.148438 -18.589844 -0.300781 -11.839844 Z M 3.175781 -12.277344 C 2.570312 -17.089844 5.925781 -21.449219 10.738281 -22.050781 C 15.546875 -22.65625 19.910156 -19.269531 20.515625 -14.457031 C 21.121094 -9.644531 17.726562 -5.316406 12.917969 -4.710938 C 8.105469 -4.105469 3.78125 -7.464844 3.175781 -12.277344 Z M 3.175781 -12.277344 "/></g></g></g><g fill="#000000" fill-opacity="1"><g transform="translate(621.8002, 790.958804)"><g><path d="M 2.875 -0.359375 L 6.25 -0.785156 L 4.960938 -11.042969 L 14.316406 -12.21875 L 13.921875 -15.359375 L 4.566406 -14.183594 L 3.695312 -21.097656 L 14.253906 -22.425781 L 13.84375 -25.699219 L -0.0898438 -23.949219 Z M 2.875 -0.359375 "/></g></g></g><g fill="#000000" fill-opacity="1"><g transform="translate(639.336156, 788.755639)"><g/></g></g><g fill="#000000" fill-opacity="1"><g transform="translate(647.653207, 787.71071)"><g><path d="M 12.390625 -19.171875 L 15.714844 -19.722656 C 14.574219 -23.925781 10.597656 -25.328125 6.988281 -24.875 C 4.28125 -24.535156 1.609375 -23.113281 0.296875 -20.875 C -0.429688 -19.632812 -0.695312 -18.238281 -0.519531 -16.835938 C -0.5 -16.667969 -0.441406 -16.472656 -0.414062 -16.273438 L -0.417969 -16.304688 C 0.5625 -11.472656 4.9375 -11.210938 8.625 -11.300781 C 10.996094 -11.359375 13.4375 -11.359375 14.0625 -9.640625 C 14.167969 -9.347656 14.234375 -9.085938 14.261719 -8.851562 C 14.566406 -6.445312 12 -4.699219 9.496094 -4.382812 C 7.324219 -4.109375 4.542969 -4.914062 4.035156 -7.058594 L 4.050781 -6.921875 L 3.953125 -7.421875 L 0.554688 -6.925781 L 0.667969 -6.296875 C 1.628906 -2.171875 6.273438 -0.585938 9.882812 -1.039062 C 14.089844 -1.566406 18.242188 -4.734375 17.675781 -9.246094 C 17.617188 -9.714844 17.476562 -10.273438 17.316406 -10.761719 C 15.941406 -14.390625 11.863281 -14.726562 8.601562 -14.726562 C 5.96875 -14.632812 3.21875 -14.625 2.878906 -17.332031 C 2.796875 -18 2.878906 -18.6875 3.214844 -19.242188 C 4.03125 -20.597656 5.734375 -21.355469 7.335938 -21.558594 C 9.34375 -21.808594 11.660156 -21.183594 12.390625 -19.171875 Z M 12.390625 -19.171875 "/></g></g></g><g fill="#000000" fill-opacity="1"><g transform="translate(667.52735, 785.213783)"><g><path d="M -0.300781 -11.839844 C 0.546875 -5.09375 6.601562 -0.386719 13.351562 -1.238281 C 20.101562 -2.085938 24.839844 -8.144531 23.992188 -14.894531 C 23.144531 -21.640625 17.050781 -26.375 10.300781 -25.527344 C 3.550781 -24.679688 -1.148438 -18.589844 -0.300781 -11.839844 Z M 3.175781 -12.277344 C 2.570312 -17.089844 5.925781 -21.449219 10.738281 -22.050781 C 15.546875 -22.65625 19.910156 -19.269531 20.515625 -14.457031 C 21.121094 -9.644531 17.726562 -5.316406 12.917969 -4.710938 C 8.105469 -4.105469 3.78125 -7.464844 3.175781 -12.277344 Z M 3.175781 -12.277344 "/></g></g></g><g fill="#000000" fill-opacity="1"><g transform="translate(694.382494, 781.839784)"><g><path d="M -0.15625 -11.792969 C 0.25 -8.550781 2.027344 -5.753906 4.300781 -3.867188 C 6.605469 -1.984375 9.710938 -1.050781 12.882812 -1.449219 C 18.332031 -2.132812 22.152344 -6.277344 22.824219 -11.757812 L 19.515625 -11.34375 C 18.757812 -7.652344 16.007812 -5.234375 12.464844 -4.789062 C 10.226562 -4.507812 7.871094 -5.164062 6.207031 -6.515625 C 4.542969 -7.867188 3.410156 -9.863281 3.117188 -12.203125 C 2.8125 -14.609375 3.457031 -16.792969 4.734375 -18.515625 C 6.011719 -20.238281 8.082031 -21.582031 10.320312 -21.863281 C 13.761719 -22.296875 16.871094 -20.785156 18.546875 -17.433594 L 21.886719 -17.851562 C 19.886719 -22.964844 15.246094 -25.875 9.898438 -25.207031 C 6.726562 -24.804688 3.871094 -22.953125 2.097656 -20.59375 C 0.359375 -18.203125 -0.574219 -15.097656 -0.15625 -11.792969 Z M -0.15625 -11.792969 "/></g></g></g><g fill="#000000" fill-opacity="1"><g transform="translate(719.567477, 778.675619)"><g><path d="M 8.019531 -21.8125 L 12.363281 -22.359375 L 11.972656 -25.464844 L -0.0898438 -23.949219 L 0.300781 -20.84375 L 4.644531 -21.386719 L 6.824219 -4.046875 L 2.480469 -3.5 L 2.875 -0.359375 L 14.933594 -1.875 L 14.539062 -5.015625 L 10.195312 -4.472656 Z M 8.019531 -21.8125 "/></g></g></g><g fill="#000000" fill-opacity="1"><g transform="translate(737.337262, 776.443077)"><g><path d="M 16.714844 -5.527344 L 5.859375 -4.164062 L 4.992188 -11.046875 L 15.585938 -12.378906 L 15.15625 -15.785156 L 4.566406 -14.453125 L 3.738281 -21.035156 L 14.5625 -22.398438 L 14.140625 -25.773438 L -0.09375 -23.984375 L 2.875 -0.359375 L 17.140625 -2.152344 Z M 16.714844 -5.527344 "/></g></g></g><g fill="#000000" fill-opacity="1"><g transform="translate(755.975538, 774.101421)"><g><path d="M 4.71875 -21.328125 L 7.285156 -0.914062 L 10.660156 -1.339844 L 8.09375 -21.753906 L 15.144531 -22.640625 L 14.742188 -25.847656 L -2.765625 -23.648438 L -2.363281 -20.441406 Z M 4.71875 -21.328125 "/></g></g></g><g fill="#000000" fill-opacity="1"><g transform="translate(773.91233, 771.847897)"><g><path d="M 8.019531 -21.8125 L 12.363281 -22.359375 L 11.972656 -25.464844 L -0.0898438 -23.949219 L 0.300781 -20.84375 L 4.644531 -21.386719 L 6.824219 -4.046875 L 2.480469 -3.5 L 2.875 -0.359375 L 14.933594 -1.875 L 14.539062 -5.015625 L 10.195312 -4.472656 Z M 8.019531 -21.8125 "/></g></g></g><g fill="#000000" fill-opacity="1"><g transform="translate(791.682114, 769.615355)"><g><path d="M 16.714844 -5.527344 L 5.859375 -4.164062 L 4.992188 -11.046875 L 15.585938 -12.378906 L 15.15625 -15.785156 L 4.566406 -14.453125 L 3.738281 -21.035156 L 14.5625 -22.398438 L 14.140625 -25.773438 L -0.09375 -23.984375 L 2.875 -0.359375 L 17.140625 -2.152344 Z M 16.714844 -5.527344 "/></g></g></g><g fill="#000000" fill-opacity="1"><g transform="translate(810.320391, 767.273698)"><g><path d="M 12.390625 -19.171875 L 15.714844 -19.722656 C 14.574219 -23.925781 10.597656 -25.328125 6.988281 -24.875 C 4.28125 -24.535156 1.609375 -23.113281 0.296875 -20.875 C -0.429688 -19.632812 -0.695312 -18.238281 -0.519531 -16.835938 C -0.5 -16.667969 -0.441406 -16.472656 -0.414062 -16.273438 L -0.417969 -16.304688 C 0.5625 -11.472656 4.9375 -11.210938 8.625 -11.300781 C 10.996094 -11.359375 13.4375 -11.359375 14.0625 -9.640625 C 14.167969 -9.347656 14.234375 -9.085938 14.261719 -8.851562 C 14.566406 -6.445312 12 -4.699219 9.496094 -4.382812 C 7.324219 -4.109375 4.542969 -4.914062 4.035156 -7.058594 L 4.050781 -6.921875 L 3.953125 -7.421875 L 0.554688 -6.925781 L 0.667969 -6.296875 C 1.628906 -2.171875 6.273438 -0.585938 9.882812 -1.039062 C 14.089844 -1.566406 18.242188 -4.734375 17.675781 -9.246094 C 17.617188 -9.714844 17.476562 -10.273438 17.316406 -10.761719 C 15.941406 -14.390625 11.863281 -14.726562 8.601562 -14.726562 C 5.96875 -14.632812 3.21875 -14.625 2.878906 -17.332031 C 2.796875 -18 2.878906 -18.6875 3.214844 -19.242188 C 4.03125 -20.597656 5.734375 -21.355469 7.335938 -21.558594 C 9.34375 -21.808594 11.660156 -21.183594 12.390625 -19.171875 Z M 12.390625 -19.171875 "/></g></g></g><g fill="#000000" fill-opacity="1"><g transform="translate(830.197207, 764.776435)"><g/></g></g></svg>